# xmcd CD database file
#
# Track frame offsets:
#	183
#	7248
#	28498
#	51253
#	76458
#	93293
#	115150
#	151535
#	161905
#	180765
#	211215
#	232590
#	254893
#	270050
#	292310
#	312828
#
# Disc length: 4447 seconds
#
# Revision: 0
# Processed by: cddbd v1.5.2PL0 Copyright (c) Steve Scherf et al.
# Submitted via: CDex 1.70beta2
#
DISCID=d1115d10
DTITLE=Georges Arvanitas - Piano jazz in New York
DYEAR=1980
DGENRE=Jazz
TTITLE0=Bird of paradise
TTITLE1=Moanin
TTITLE2=Misty
TTITLE3=Round about midnight
TTITLE4=Mood indigo
TTITLE5=Night in tunisia
TTITLE6=All blues
TTITLE7=Swift fly
TTITLE8=Bluesette
TTITLE9=Ain't misbehavin
TTITLE10=My love goes through time
TTITLE11=Mack the knife
TTITLE12=Lyon's blues
TTITLE13=Off minor
TTITLE14=Once Iloved
TTITLE15=Chasing the dex
EXTD=YEAR: 1980
EXTT0=
EXTT1=
EXTT2=
EXTT3=
EXTT4=
EXTT5=
EXTT6=
EXTT7=
EXTT8=
EXTT9=
EXTT10=
EXTT11=
EXTT12=
EXTT13=
EXTT14=
EXTT15=
PLAYORDER=
